<?xml version="1.0" encoding="UTF-8" standalone="no"?>
<!-- Created with Inkscape (http://www.inkscape.org/) -->

<svg
   version="1.1"
   id="svg2"
   xml:space="preserve"
   width="1122.5197"
   height="1587.4016"
   viewBox="0 0 1122.5197 1587.4016"
   sodipodi:docname="base_poster_en_.svg"
   inkscape:version="1.3 (0e150ed, 2023-07-21)"
   inkscape:export-filename="/Users/villares/Desktop/frente.png"
   inkscape:export-xdpi="42.759998"
   inkscape:export-ydpi="42.759998"
   xmlns:inkscape="http://www.inkscape.org/namespaces/inkscape"
   xmlns:sodipodi="http://sodipodi.sourceforge.net/DTD/sodipodi-0.dtd"
   xmlns="http://www.w3.org/2000/svg"
   xmlns:svg="http://www.w3.org/2000/svg"
   xmlns:rdf="http://www.w3.org/1999/02/22-rdf-syntax-ns#"
   xmlns:cc="http://creativecommons.org/ns#"
   xmlns:dc="http://purl.org/dc/elements/1.1/"><metadata
     id="metadata8"><rdf:RDF><cc:Work
         rdf:about=""><dc:format>image/svg+xml</dc:format><dc:type
           rdf:resource="http://purl.org/dc/dcmitype/StillImage" /></cc:Work></rdf:RDF></metadata><defs
     id="defs6"><rect
       x="153.87397"
       y="294.60979"
       width="62.545309"
       height="121.12227"
       id="rect5" /></defs><sodipodi:namedview
     pagecolor="#ffffff"
     bordercolor="#666666"
     borderopacity="1"
     objecttolerance="10"
     gridtolerance="10"
     guidetolerance="10"
     inkscape:pageopacity="0"
     inkscape:pageshadow="2"
     inkscape:window-width="1920"
     inkscape:window-height="1052"
     id="namedview4"
     showgrid="false"
     units="px"
     showguides="true"
     inkscape:guide-bbox="true"
     inkscape:zoom="0.67069126"
     inkscape:cx="462.20969"
     inkscape:cy="193.82987"
     inkscape:window-x="0"
     inkscape:window-y="0"
     inkscape:window-maximized="1"
     inkscape:current-layer="g10"
     showborder="true"
     inkscape:showpageshadow="true"
     inkscape:pagecheckerboard="0"
     inkscape:deskcolor="#d1d1d1"><sodipodi:guide
       position="374.17325,763.54035"
       orientation="1,0"
       id="guide1573"
       inkscape:locked="false" /><sodipodi:guide
       position="748.34649,763.54035"
       orientation="1,0"
       id="guide1575"
       inkscape:locked="false" /><sodipodi:guide
       position="347.71654,793.70089"
       orientation="0,1"
       id="guide1577"
       inkscape:locked="false" /><sodipodi:guide
       position="26.456667,1587.9021"
       orientation="0,1"
       id="guide6941"
       inkscape:locked="false" /><sodipodi:guide
       position="58.07567,-2.765508"
       orientation="0,1"
       id="guide8279"
       inkscape:locked="false" /><sodipodi:guide
       position="26.131559,158.72503"
       orientation="1,0"
       id="guide2801"
       inkscape:locked="false" /><sodipodi:guide
       position="400.68391,-30.002902"
       orientation="1,0"
       id="guide2803"
       inkscape:locked="false" /><sodipodi:guide
       position="773.72558,-66.780651"
       orientation="1,0"
       id="guide2805"
       inkscape:locked="false" /><sodipodi:guide
       position="225.94472,1120.56"
       orientation="0,-1"
       id="guide5"
       inkscape:locked="false" /></sodipodi:namedview><g
     id="g10"
     inkscape:groupmode="layer"
     inkscape:label="folder_210x99"
     transform="matrix(1.3333333,0,0,-1.3333333,0,1587.4015)"
     style="display:inline"><rect
   style="fill:#ffffff;stroke:none;stroke-width:0.75;stroke-miterlimit:4;stroke-dasharray:none;stroke-opacity:1"
   id="rect4079"
   width="802.09894"
   height="801.75"
   x="19.895412"
   y="-821.62494"
   transform="scale(1,-1)" /><g
   aria-label="desenho()  "
   transform="matrix(0.99999997,-2.2788958e-4,-2.2788958e-4,-0.99999997,0,0)"
   style="font-style:normal;font-variant:normal;font-weight:bold;font-stretch:normal;font-size:40px;line-height:30px;font-family:Inconsolata;-inkscape-font-specification:'Inconsolata, Bold';font-variant-ligatures:normal;font-variant-caps:normal;font-variant-numeric:normal;font-feature-settings:normal;text-align:end;letter-spacing:0px;word-spacing:0px;writing-mode:lr-tb;text-anchor:end;fill:#000000;fill-opacity:1;stroke:none;stroke-width:0.75"
   id="text6858"><path
     d="m 105.05923,-1136.7916 q -2.0039,0 -3.63867,-0.9668 -1.634763,-0.9844 -2.583982,-2.9356 -0.949218,-1.9687 -0.949218,-4.7812 0,-2.7422 0.966796,-4.7988 0.984375,-2.0567 2.619144,-3.1465 1.63476,-1.0899 3.55078,-1.0899 0.98437,0 2.07422,0.4746 1.08984,0.4746 1.81054,1.2129 v -8.8066 h 4.39454 v 0.4043 q -0.19336,0.2109 -0.2461,0.4746 -0.0527,0.2461 -0.0352,0.8437 l -0.0703,20.5489 q 0,0.6152 0.0703,1.0898 0.0703,0.457 0.3164,0.9317 h -3.91992 q -0.24609,-0.4571 -0.29883,-0.8614 -0.0352,-0.4043 -0.0352,-1.1601 -0.52735,1.2656 -1.66993,1.916 -1.14257,0.6504 -2.35547,0.6504 z m 0.58008,-3.3574 q 3.30469,0 3.30469,-5.7833 0,-2.4257 -0.70312,-3.8671 -0.70313,-1.4414 -2.4961,-1.4414 -1.89844,0 -2.84765,1.582 -0.93165,1.582 -0.93165,4.1133 0,1.8808 0.54493,3.0937 0.5625,1.2129 1.38867,1.7578 0.84375,0.545 1.74023,0.545 z"
     style="font-style:normal;font-variant:normal;font-weight:bold;font-stretch:normal;font-size:36px;line-height:30px;font-family:Inconsolata;-inkscape-font-specification:'Inconsolata, Bold';font-variant-ligatures:normal;font-variant-caps:normal;font-variant-numeric:normal;font-feature-settings:normal;text-align:end;writing-mode:lr-tb;text-anchor:end;stroke-width:0.75"
     id="path3182"
     inkscape:connector-curvature="0" /><path
     d="m 124.5358,-1136.7565 q -2.42578,0 -4.32422,-1.0547 -1.89844,-1.0546 -2.98828,-3.0234 -1.07227,-1.9863 -1.07227,-4.6758 0,-2.7246 1.01953,-4.7636 1.01953,-2.0391 2.83008,-3.129 1.81055,-1.1074 4.0957,-1.1074 2.02149,0 3.63868,0.9492 1.63476,0.9317 2.58398,2.795 0.94922,1.8457 0.94922,4.4648 0,0.4219 -0.0703,1.1953 l -0.0352,0.4922 h -11.02148 q 0.26367,2.3027 1.4414,3.4805 1.17774,1.1601 2.8125,1.1601 1.16016,0 2.33789,-0.5273 1.17774,-0.5449 1.9336,-1.5117 l 2.23242,2.2324 q -2.54883,3.0234 -6.36328,3.0234 z m 2.70703,-10.8105 q 0,-1.0547 -0.42188,-1.9512 -0.40429,-0.8965 -1.17773,-1.4238 -0.75586,-0.5449 -1.75781,-0.5449 -1.47657,0 -2.44336,1.0722 -0.9668,1.0547 -1.16016,2.8477 z"
     style="font-style:normal;font-variant:normal;font-weight:bold;font-stretch:normal;font-size:36px;line-height:30px;font-family:Inconsolata;-inkscape-font-specification:'Inconsolata, Bold';font-variant-ligatures:normal;font-variant-caps:normal;font-variant-numeric:normal;font-feature-settings:normal;text-align:end;writing-mode:lr-tb;text-anchor:end;stroke-width:0.75"
     id="path3184"
     inkscape:connector-curvature="0" /><path
     d="m 143.46744,-1147.3737 q 2.07422,0.6329 3.25195,1.2832 1.17774,0.6329 1.72266,1.5293 0.54492,0.8965 0.54492,2.25 0,1.459 -0.87891,2.7422 -0.86133,1.2657 -2.37304,2.0391 -1.51172,0.7734 -3.375,0.7734 -2.53125,0 -4.41211,-0.6679 -1.88086,-0.6856 -3.44532,-2.1797 l 1.6875,-2.9532 0.0176,-0.035 0.0352,0.035 q 1.23047,1.336 2.6543,1.9512 1.4414,0.5977 3.49804,0.5977 2.88281,0 2.88281,-1.8985 0,-0.58 -0.35156,-1.0019 -0.35156,-0.4219 -1.125,-0.7735 -0.77344,-0.3515 -2.12695,-0.7382 -2.90039,-0.7559 -4.51758,-1.8985 -1.59961,-1.1601 -1.59961,-3.1816 0,-1.459 0.77344,-2.584 0.79101,-1.1426 2.25,-1.7754 1.47656,-0.6504 3.44531,-0.6504 1.96875,0 3.58594,0.6504 1.63476,0.6328 3.00586,1.9512 l -2.03906,2.8301 -0.0176,0.035 q -0.0176,0 -0.0176,0 0,-0.018 0,-0.018 -0.73828,-1.0546 -1.91602,-1.6347 -1.16015,-0.5801 -2.53125,-0.5801 -1.07226,0 -1.79296,0.3691 -0.72071,0.3692 -0.72071,1.002 0,0.5801 0.38672,1.0019 0.4043,0.4043 1.19531,0.7383 0.8086,0.334 2.30274,0.791 z m 2.60156,-1.705 q 0,-0.035 0.0352,-0.035 0.0527,0 0.17578,0.088 0.14062,0.088 0.19336,0.123 l -0.0703,0.088 -0.33398,-0.2285 z m 0.49219,0.035 q 0.12304,0.1934 0.12304,0.2461 0,0.018 -0.0879,-0.018 -0.0703,-0.053 -0.12304,-0.088 z m -9.84375,6.4688 q 0,0.035 -0.0352,0.035 -0.0527,0 -0.19336,-0.07 -0.12304,-0.07 -0.21094,-0.1055 l 0.0703,-0.123 0.35156,0.2109 z m -0.50977,-0.018 q -0.14062,-0.1406 -0.14062,-0.1934 0,0 0,0 0,-0.017 0.0176,-0.017 l 0.19335,0.088 z"
     style="font-style:normal;font-variant:normal;font-weight:bold;font-stretch:normal;font-size:36px;line-height:30px;font-family:Inconsolata;-inkscape-font-specification:'Inconsolata, Bold';font-variant-ligatures:normal;font-variant-caps:normal;font-variant-numeric:normal;font-feature-settings:normal;text-align:end;writing-mode:lr-tb;text-anchor:end;stroke-width:0.75"
     id="path3186"
     inkscape:connector-curvature="0" /><path
     d="m 160.5358,-1136.7565 q -2.42578,0 -4.32422,-1.0547 -1.89844,-1.0546 -2.98828,-3.0234 -1.07227,-1.9863 -1.07227,-4.6758 0,-2.7246 1.01953,-4.7636 1.01953,-2.0391 2.83008,-3.129 1.81055,-1.1074 4.0957,-1.1074 2.02149,0 3.63868,0.9492 1.63476,0.9317 2.58398,2.795 0.94922,1.8457 0.94922,4.4648 0,0.4219 -0.0703,1.1953 l -0.0352,0.4922 h -11.02148 q 0.26367,2.3027 1.4414,3.4805 1.17774,1.1601 2.8125,1.1601 1.16016,0 2.33789,-0.5273 1.17774,-0.5449 1.9336,-1.5117 l 2.23242,2.2324 q -2.54883,3.0234 -6.36328,3.0234 z m 2.70703,-10.8105 q 0,-1.0547 -0.42188,-1.9512 -0.40429,-0.8965 -1.17773,-1.4238 -0.75586,-0.5449 -1.75781,-0.5449 -1.47657,0 -2.44336,1.0722 -0.9668,1.0547 -1.16016,2.8477 z"
     style="font-style:normal;font-variant:normal;font-weight:bold;font-stretch:normal;font-size:36px;line-height:30px;font-family:Inconsolata;-inkscape-font-specification:'Inconsolata, Bold';font-variant-ligatures:normal;font-variant-caps:normal;font-variant-numeric:normal;font-feature-settings:normal;text-align:end;writing-mode:lr-tb;text-anchor:end;stroke-width:0.75"
     id="path3188"
     inkscape:connector-curvature="0" /><path
     d="m 170.9772,-1154.1412 h 4.06055 v 1.7226 q 0.89648,-0.9844 2.12695,-1.5293 1.23047,-0.5625 2.67188,-0.5625 2.39062,0 3.81445,1.7051 1.44141,1.6875 1.44141,5.2734 v 10.1954 h -4.04297 v -10.1602 q 0,-1.8984 -0.70313,-2.7949 -0.68554,-0.8965 -2.05664,-0.8965 -0.86132,0 -1.61718,0.3516 -0.73829,0.3339 -1.19532,1.0195 -0.43945,0.6855 -0.43945,1.6875 v 10.793 h -4.06055 z"
     style="font-style:normal;font-variant:normal;font-weight:bold;font-stretch:normal;font-size:36px;line-height:30px;font-family:Inconsolata;-inkscape-font-specification:'Inconsolata, Bold';font-variant-ligatures:normal;font-variant-caps:normal;font-variant-numeric:normal;font-feature-settings:normal;text-align:end;writing-mode:lr-tb;text-anchor:end;stroke-width:0.75"
     id="path3190"
     inkscape:connector-curvature="0" /><path
     d="m 188.9772,-1161.6295 h 4.3418 v 0.4043 q -0.19336,0.2109 -0.24609,0.4746 -0.0527,0.2461 -0.0352,0.8437 v 7.4883 q 0.87891,-0.9668 2.03906,-1.5293 1.17774,-0.5625 2.35547,-0.5625 2.70703,0 4.20117,1.6875 1.49414,1.6699 1.49414,5.291 v 10.1954 h -4.07812 v -10.1602 q 0,-1.8633 -0.65039,-2.7773 -0.63281,-0.9141 -1.75781,-0.9141 -1.00196,0 -1.82813,0.5273 -0.82617,0.5274 -1.30078,1.4766 -0.47461,0.9316 -0.47461,2.1269 v 9.7208 h -4.06055 z"
     style="font-style:normal;font-variant:normal;font-weight:bold;font-stretch:normal;font-size:36px;line-height:30px;font-family:Inconsolata;-inkscape-font-specification:'Inconsolata, Bold';font-variant-ligatures:normal;font-variant-caps:normal;font-variant-numeric:normal;font-feature-settings:normal;text-align:end;writing-mode:lr-tb;text-anchor:end;stroke-width:0.75"
     id="path3192"
     inkscape:connector-curvature="0" /><path
     d="m 213.85025,-1136.7565 q -2.23242,0 -4.06055,-1.1425 -1.82812,-1.1426 -2.88281,-3.1817 -1.05469,-2.0391 -1.05469,-4.6406 0,-2.4434 1.07227,-4.4473 1.07226,-2.0215 2.90039,-3.1816 1.8457,-1.1602 4.02539,-1.1602 2.17969,0 4.00781,1.1602 1.84571,1.1601 2.91797,3.1816 1.07227,2.0039 1.07227,4.4473 0,2.6015 -1.05469,4.6406 -1.05469,2.0391 -2.88281,3.1817 -1.82813,1.1425 -4.06055,1.1425 z m 0,-3.2519 q 1.19531,0 2.07422,-0.7031 0.89648,-0.7208 1.37109,-2.004 0.47461,-1.3007 0.47461,-3.0058 0,-1.7227 -0.47461,-2.9707 -0.47461,-1.2481 -1.37109,-1.916 -0.87891,-0.668 -2.07422,-0.668 -1.14258,0 -2.02148,0.668 -0.86133,0.6679 -1.35352,1.9336 -0.47461,1.248 -0.47461,2.9531 0,1.7226 0.45703,3.0234 0.47461,1.2832 1.33594,1.9864 0.86133,0.7031 2.05664,0.7031 z"
     style="font-style:normal;font-variant:normal;font-weight:bold;font-stretch:normal;font-size:36px;line-height:30px;font-family:Inconsolata;-inkscape-font-specification:'Inconsolata, Bold';font-variant-ligatures:normal;font-variant-caps:normal;font-variant-numeric:normal;font-feature-settings:normal;text-align:end;writing-mode:lr-tb;text-anchor:end;stroke-width:0.75"
     id="path3194"
     inkscape:connector-curvature="0" /><path
     d="m 237.10611,-1130.7799 q -3.16406,-1.3184 -5.55469,-3.7266 -2.37304,-2.4082 -3.67383,-5.4668 -1.2832,-3.0761 -1.2832,-6.3281 0,-3.2168 1.24805,-6.1875 1.24804,-2.9883 3.56836,-5.3262 2.33789,-2.3554 5.48437,-3.6738 l 0.93164,3.1289 q -3.60351,1.8457 -5.55468,4.9922 -1.9336,3.1465 -1.9336,7.1719 0,2.6191 0.91406,5.0273 0.91407,2.4082 2.6543,4.3067 1.74024,1.8984 4.13086,3.0234 z"
     style="font-style:normal;font-variant:normal;font-weight:bold;font-stretch:normal;font-size:36px;line-height:30px;font-family:Inconsolata;-inkscape-font-specification:'Inconsolata, Bold';font-variant-ligatures:normal;font-variant-caps:normal;font-variant-numeric:normal;font-feature-settings:normal;text-align:end;writing-mode:lr-tb;text-anchor:end;stroke-width:0.75"
     id="path3196"
     inkscape:connector-curvature="0" /><path
     d="m 244.59439,-1133.8385 q 2.39063,-1.125 4.13086,-3.0234 1.74023,-1.8985 2.6543,-4.3067 0.91406,-2.4082 0.91406,-5.0273 0,-4.0254 -1.95117,-7.1719 -1.9336,-3.1465 -5.53711,-4.9922 l 0.93164,-3.1289 q 3.14648,1.3184 5.4668,3.6738 2.33789,2.3379 3.58593,5.3262 1.24805,2.9707 1.24805,6.1875 0,3.252 -1.30078,6.3281 -1.2832,3.0586 -3.67383,5.4668 -2.37305,2.4082 -5.53711,3.7266 z"
     style="font-style:normal;font-variant:normal;font-weight:bold;font-stretch:normal;font-size:36px;line-height:30px;font-family:Inconsolata;-inkscape-font-specification:'Inconsolata, Bold';font-variant-ligatures:normal;font-variant-caps:normal;font-variant-numeric:normal;font-feature-settings:normal;text-align:end;writing-mode:lr-tb;text-anchor:end;stroke-width:0.75"
     id="path3198"
     inkscape:connector-curvature="0" /></g><g
   transform="scale(1,-1)"
   style="font-style:normal;font-variant:normal;font-weight:normal;font-stretch:normal;font-size:8px;line-height:10px;font-family:Inconsolata;-inkscape-font-specification:Inconsolata;letter-spacing:0px;word-spacing:0px;fill:#000000;fill-opacity:1;stroke:none;stroke-width:0.75"
   id="text8216" /><g
   transform="scale(1,-1)"
   style="font-style:normal;font-variant:normal;font-weight:normal;font-stretch:normal;font-size:8px;line-height:10px;font-family:Inconsolata;-inkscape-font-specification:Inconsolata;letter-spacing:0px;word-spacing:0px;fill:#000000;fill-opacity:1;stroke:none;stroke-width:0.75"
   id="text8220" /><g
   transform="matrix(0.75000002,0,0,-0.75000002,0,1190.5512)"
   style="font-style:normal;font-variant:normal;font-weight:normal;font-stretch:normal;font-size:10.66666698px;line-height:13.33333302px;font-family:Inconsolata;-inkscape-font-specification:Inconsolata;letter-spacing:0px;word-spacing:0px;fill:#000000;fill-opacity:1;stroke:none"
   id="flowRoot8242" />&#10;<rect
   y="140.99699"
   x="562.32251"
   height="2.9035068"
   width="4.3655746e-11"
   id="rect2811"
   style="font-style:normal;font-variant:normal;font-weight:bold;font-stretch:normal;font-size:medium;line-height:10px;font-family:Inconsolata;-inkscape-font-specification:'Inconsolata Bold';letter-spacing:0px;word-spacing:0px;fill:#cccccc;fill-opacity:1;stroke:none;stroke-width:0.75;stroke-miterlimit:4;stroke-dasharray:none;stroke-opacity:1"
   transform="scale(1,-1)" /><g
   aria-label=" "
   transform="scale(1,-1)"
   style="font-style:normal;font-variant:normal;font-weight:bold;font-stretch:normal;font-size:20px;line-height:10px;font-family:Inconsolata;-inkscape-font-specification:'Inconsolata Bold';letter-spacing:0px;word-spacing:0px;fill:#000000;fill-opacity:1;stroke:none;stroke-width:0.75"
   id="text5700" /><rect
   style="fill:none;stroke:none;stroke-width:0.74570179;stroke-miterlimit:4;stroke-dasharray:none;stroke-opacity:1"
   id="rect8277"
   width="840.8241"
   height="1189.5051"
   x="0.37285089"
   y="-1189.8771"
   transform="scale(1,-1)" />&#10;&#10;<rect
   style="fill:#ffffff;fill-opacity:1;stroke:none;stroke-width:0.51810306;stroke-miterlimit:4;stroke-dasharray:none;stroke-opacity:1"
   id="rect4485"
   width="84.383942"
   height="9.4211407"
   x="-6.9874277"
   y="-948.28674"
   transform="scale(1,-1)" /><text
   xml:space="preserve"
   style="font-style:normal;font-variant:normal;font-weight:bold;font-stretch:normal;font-size:20px;line-height:10px;font-family:Inconsolata;-inkscape-font-specification:'Inconsolata Bold';letter-spacing:0px;word-spacing:0px;fill:#000000;fill-opacity:1;stroke:none;stroke-width:0.75"
   x="-109.02729"
   y="-1026.4203"
   id="text952"
   transform="scale(1,-1)" />&#10;<text
   xml:space="preserve"
   transform="matrix(0.75000002,0,0,-0.75000002,0,1190.5512)"
   id="text5"
   style="font-style:normal;font-weight:normal;font-size:40px;line-height:1.25;font-family:sans-serif;white-space:pre;shape-inside:url(#rect5);display:inline;fill:#000000;fill-opacity:1;stroke:none" /></g></svg>
