<?xml version="1.0" encoding="UTF-8" standalone="no"?>
<!-- Created with Inkscape (http://www.inkscape.org/) -->

<svg
   version="1.1"
   id="svg2"
   xml:space="preserve"
   width="1122.5197"
   height="1587.4017"
   viewBox="0 0 1122.5197 1587.4017"
   sodipodi:docname="base_poster.svg"
   inkscape:version="1.2.1 (9c6d41e, 2022-07-14)"
   xmlns:inkscape="http://www.inkscape.org/namespaces/inkscape"
   xmlns:sodipodi="http://sodipodi.sourceforge.net/DTD/sodipodi-0.dtd"
   xmlns="http://www.w3.org/2000/svg"
   xmlns:svg="http://www.w3.org/2000/svg"
   xmlns:rdf="http://www.w3.org/1999/02/22-rdf-syntax-ns#"
   xmlns:cc="http://creativecommons.org/ns#"
   xmlns:dc="http://purl.org/dc/elements/1.1/"><metadata
     id="metadata8"><rdf:RDF><cc:Work
         rdf:about=""><dc:format>image/svg+xml</dc:format><dc:type
           rdf:resource="http://purl.org/dc/dcmitype/StillImage" /><dc:title /></cc:Work></rdf:RDF></metadata><defs
     id="defs6"><clipPath
       clipPathUnits="userSpaceOnUse"
       id="clipPath20"><path
         d="M 300.48,264.719 H 541.425 V 23.774 H 300.48 Z"
         id="path18"
         inkscape:connector-curvature="0" /></clipPath><clipPath
       clipPathUnits="userSpaceOnUse"
       id="clipPath30"><path
         d="M 300,24 H 542 V 266 H 300 Z"
         id="path28"
         inkscape:connector-curvature="0" /></clipPath><clipPath
       clipPathUnits="userSpaceOnUse"
       id="clipPath58"><path
         d="M 300.711,859.008 H 541.656 V 618.067 H 300.711 Z"
         id="path56"
         inkscape:connector-curvature="0" /></clipPath><clipPath
       clipPathUnits="userSpaceOnUse"
       id="clipPath68"><path
         d="M 300,618 H 542 V 860 H 300 Z"
         id="path66"
         inkscape:connector-curvature="0" /></clipPath><clipPath
       clipPathUnits="userSpaceOnUse"
       id="clipPath2468"><path
         d="M 580.551,858.719 H 821.496 V 617.774 H 580.551 Z"
         id="path2466"
         inkscape:connector-curvature="0" /></clipPath><clipPath
       clipPathUnits="userSpaceOnUse"
       id="clipPath2478"><path
         d="M 580,618 H 822 V 860 H 580 Z"
         id="path2476"
         inkscape:connector-curvature="0" /></clipPath><clipPath
       clipPathUnits="userSpaceOnUse"
       id="clipPath9562"><path
         d="M 19.332,264.446 H 260.277 V 23.501 H 19.332 Z"
         id="path9560"
         inkscape:connector-curvature="0" /></clipPath><clipPath
       clipPathUnits="userSpaceOnUse"
       id="clipPath10592"><path
         d="M 19.844,859.012 H 260.789 V 618.067 H 19.844 Z"
         id="path10590"
         inkscape:connector-curvature="0" /></clipPath><clipPath
       clipPathUnits="userSpaceOnUse"
       id="clipPath10602"><path
         d="M 19,618 H 261 V 860 H 19 Z"
         id="path10600"
         inkscape:connector-curvature="0" /></clipPath></defs><sodipodi:namedview
     pagecolor="#ffffff"
     bordercolor="#666666"
     borderopacity="1"
     objecttolerance="10"
     gridtolerance="10"
     guidetolerance="10"
     inkscape:pageopacity="0"
     inkscape:pageshadow="2"
     inkscape:window-width="1920"
     inkscape:window-height="1052"
     id="namedview4"
     showgrid="false"
     inkscape:zoom="2.438701"
     inkscape:cx="236.60137"
     inkscape:cy="141.26373"
     inkscape:window-x="0"
     inkscape:window-y="0"
     inkscape:window-maximized="1"
     inkscape:current-layer="g10"
     inkscape:showpageshadow="2"
     inkscape:pagecheckerboard="0"
     inkscape:deskcolor="#d1d1d1"
     showguides="false" /><g
     id="g10"
     inkscape:groupmode="layer"
     inkscape:label="frente_r3"
     transform="matrix(1.3333333,0,0,-1.3333333,0,1587.4017)"><g
       id="g12" /><path
       d="m 585.324,1136.766 c -1.344,0 -2.562,0.324 -3.656,0.969 -1.086,0.656 -1.945,1.633 -2.578,2.937 -0.625,1.313 -0.938,2.907 -0.938,4.782 0,1.82 0.321,3.421 0.969,4.796 0.656,1.375 1.524,2.422 2.609,3.141 1.094,0.727 2.274,1.094 3.547,1.094 0.657,0 1.348,-0.164 2.078,-0.485 0.727,-0.312 1.333,-0.714 1.813,-1.203 v 8.813 h 4.391 v -0.406 c -0.125,-0.149 -0.211,-0.305 -0.25,-0.469 -0.032,-0.168 -0.043,-0.449 -0.032,-0.844 l -0.062,-20.562 c 0,-0.407 0.019,-0.766 0.062,-1.079 0.051,-0.312 0.161,-0.625 0.328,-0.937 h -3.921 c -0.168,0.301 -0.266,0.586 -0.297,0.859 -0.032,0.27 -0.047,0.657 -0.047,1.157 -0.344,-0.844 -0.902,-1.485 -1.672,-1.922 -0.762,-0.426 -1.543,-0.641 -2.344,-0.641 z m 0.578,3.359 c 2.196,0 3.297,1.926 3.297,5.782 0,1.613 -0.234,2.898 -0.703,3.859 -0.469,0.969 -1.297,1.453 -2.484,1.453 -1.274,0 -2.219,-0.531 -2.844,-1.594 -0.625,-1.054 -0.938,-2.421 -0.938,-4.109 0,-1.25 0.18,-2.281 0.547,-3.094 0.375,-0.804 0.836,-1.386 1.391,-1.75 0.551,-0.367 1.129,-0.547 1.734,-0.547 z"
       style="fill:#000000;fill-opacity:1;fill-rule:nonzero;stroke:none"
       id="path3898"
       inkscape:connector-curvature="0" /><path
       d="m 604.793,1136.731 c -1.617,0 -3.059,0.352 -4.328,1.047 -1.262,0.707 -2.25,1.719 -2.969,3.031 -0.719,1.32 -1.078,2.879 -1.078,4.672 0,1.82 0.336,3.41 1.016,4.766 0.675,1.363 1.617,2.41 2.828,3.14 1.207,0.727 2.57,1.094 4.093,1.094 1.344,0 2.555,-0.313 3.641,-0.938 1.094,-0.625 1.953,-1.558 2.578,-2.796 0.633,-1.243 0.953,-2.731 0.953,-4.469 0,-0.281 -0.023,-0.684 -0.062,-1.203 l -0.047,-0.485 h -11.016 c 0.176,-1.543 0.657,-2.703 1.438,-3.484 0.789,-0.773 1.726,-1.156 2.812,-1.156 0.77,0 1.547,0.175 2.328,0.531 0.79,0.352 1.442,0.852 1.954,1.5 l 2.218,-2.234 c -1.699,-2.012 -3.82,-3.016 -6.359,-3.016 z m 2.703,10.812 c 0,0.696 -0.137,1.344 -0.406,1.938 -0.274,0.602 -0.664,1.082 -1.172,1.437 -0.512,0.364 -1.102,0.547 -1.766,0.547 -0.992,0 -1.808,-0.355 -2.453,-1.062 -0.648,-0.711 -1.031,-1.664 -1.156,-2.86 z"
       style="fill:#000000;fill-opacity:1;fill-rule:nonzero;stroke:none"
       id="path3900"
       inkscape:connector-curvature="0" /><path
       d="m 623.73,1147.336 c 1.383,-0.418 2.469,-0.839 3.25,-1.265 0.782,-0.43 1.352,-0.946 1.719,-1.547 0.363,-0.594 0.547,-1.344 0.547,-2.25 0,-0.969 -0.293,-1.883 -0.875,-2.734 -0.574,-0.844 -1.367,-1.528 -2.375,-2.047 -1.012,-0.508 -2.137,-0.766 -3.375,-0.766 -1.687,0 -3.164,0.227 -4.422,0.672 -1.25,0.457 -2.398,1.18 -3.437,2.172 l 1.687,2.953 0.016,0.031 0.031,-0.031 c 0.82,-0.887 1.711,-1.531 2.672,-1.938 0.957,-0.406 2.117,-0.609 3.484,-0.609 1.926,0 2.891,0.633 2.891,1.906 0,0.383 -0.121,0.719 -0.359,1 -0.231,0.282 -0.606,0.535 -1.125,0.766 -0.512,0.238 -1.219,0.484 -2.125,0.734 -1.938,0.508 -3.446,1.145 -4.516,1.907 -1.063,0.769 -1.594,1.832 -1.594,3.187 0,0.969 0.258,1.828 0.781,2.578 0.52,0.758 1.27,1.352 2.25,1.781 0.977,0.426 2.125,0.641 3.438,0.641 1.312,0 2.508,-0.215 3.594,-0.641 1.082,-0.429 2.078,-1.078 2.984,-1.953 l -2.031,-2.828 -0.016,-0.047 c -0.012,0 -0.015,0 -0.015,0 0,0.01 0,0.016 0,0.016 -0.5,0.707 -1.141,1.254 -1.922,1.641 -0.774,0.382 -1.617,0.578 -2.532,0.578 -0.718,0 -1.32,-0.125 -1.796,-0.375 -0.481,-0.243 -0.719,-0.575 -0.719,-1 0,-0.387 0.129,-0.719 0.39,-1 0.27,-0.274 0.672,-0.516 1.204,-0.735 0.531,-0.218 1.296,-0.484 2.296,-0.797 z m 2.594,1.719 c 0,0.02 0.016,0.031 0.047,0.031 0.031,0 0.086,-0.031 0.172,-0.093 0.094,-0.055 0.156,-0.094 0.187,-0.125 l -0.062,-0.078 -0.344,0.218 z m 0.5,-0.047 c 0.082,-0.125 0.125,-0.203 0.125,-0.234 0,-0.024 -0.027,-0.016 -0.078,0.016 -0.055,0.031 -0.101,0.054 -0.141,0.078 z m -9.844,-6.468 c 0,-0.024 -0.011,-0.032 -0.031,-0.032 -0.043,0 -0.109,0.02 -0.203,0.063 -0.086,0.051 -0.152,0.086 -0.203,0.109 l 0.062,0.125 0.36,-0.203 z m -0.515,0.015 c -0.094,0.094 -0.141,0.16 -0.141,0.203 0,0.01 0.004,0.016 0.016,0.016 l 0.203,-0.094 z"
       style="fill:#000000;fill-opacity:1;fill-rule:nonzero;stroke:none"
       id="path3902"
       inkscape:connector-curvature="0" /><path
       d="m 640.793,1136.723 c -1.617,0 -3.059,0.352 -4.328,1.047 -1.262,0.707 -2.25,1.719 -2.969,3.031 -0.719,1.321 -1.078,2.879 -1.078,4.672 0,1.82 0.336,3.41 1.016,4.766 0.675,1.363 1.617,2.41 2.828,3.14 1.207,0.727 2.57,1.094 4.093,1.094 1.344,0 2.555,-0.312 3.641,-0.937 1.094,-0.625 1.953,-1.559 2.578,-2.797 0.633,-1.242 0.953,-2.731 0.953,-4.469 0,-0.281 -0.023,-0.684 -0.062,-1.203 l -0.047,-0.484 h -11.016 c 0.176,-1.543 0.657,-2.704 1.438,-3.485 0.789,-0.773 1.726,-1.156 2.812,-1.156 0.77,0 1.547,0.176 2.328,0.531 0.79,0.352 1.442,0.852 1.954,1.5 l 2.218,-2.234 c -1.699,-2.012 -3.82,-3.016 -6.359,-3.016 z m 2.703,10.813 c 0,0.695 -0.137,1.343 -0.406,1.937 -0.274,0.602 -0.664,1.082 -1.172,1.438 -0.512,0.363 -1.102,0.547 -1.766,0.547 -0.992,0 -1.808,-0.356 -2.453,-1.063 -0.648,-0.711 -1.031,-1.664 -1.156,-2.859 z"
       style="fill:#000000;fill-opacity:1;fill-rule:nonzero;stroke:none"
       id="path3904"
       inkscape:connector-curvature="0" /><path
       d="m 651.23,1154.11 h 4.063 v -1.735 c 0.602,0.657 1.312,1.165 2.125,1.532 0.82,0.375 1.711,0.562 2.672,0.562 1.594,0 2.867,-0.57 3.828,-1.703 0.957,-1.125 1.437,-2.883 1.437,-5.266 v -10.203 h -4.046 v 10.157 c 0,1.269 -0.235,2.203 -0.704,2.796 -0.46,0.602 -1.148,0.907 -2.062,0.907 -0.574,0 -1.109,-0.117 -1.609,-0.344 -0.493,-0.23 -0.887,-0.574 -1.188,-1.031 -0.305,-0.461 -0.453,-1.024 -0.453,-1.688 v -10.797 h -4.063 z"
       style="fill:#000000;fill-opacity:1;fill-rule:nonzero;stroke:none"
       id="path3906"
       inkscape:connector-curvature="0" /><path
       d="m 669.23,1161.59 h 4.344 v -0.406 c -0.125,-0.148 -0.211,-0.305 -0.25,-0.469 -0.031,-0.168 -0.043,-0.449 -0.031,-0.843 v -7.5 c 0.594,0.644 1.273,1.156 2.047,1.531 0.781,0.375 1.566,0.562 2.359,0.562 1.801,0 3.196,-0.562 4.188,-1.687 1,-1.117 1.5,-2.875 1.5,-5.281 v -10.204 h -4.078 v 10.157 c 0,1.25 -0.215,2.175 -0.641,2.781 -0.43,0.613 -1.016,0.922 -1.766,0.922 -0.668,0 -1.277,-0.18 -1.828,-0.531 -0.554,-0.356 -0.992,-0.844 -1.312,-1.469 -0.313,-0.625 -0.469,-1.34 -0.469,-2.141 v -9.719 h -4.063 z"
       style="fill:#000000;fill-opacity:1;fill-rule:nonzero;stroke:none"
       id="path3908"
       inkscape:connector-curvature="0" /><path
       d="m 694.105,1136.711 c -1.492,0 -2.843,0.383 -4.062,1.141 -1.219,0.758 -2.184,1.816 -2.891,3.172 -0.699,1.363 -1.047,2.914 -1.047,4.656 0,1.625 0.36,3.11 1.079,4.453 0.718,1.344 1.687,2.399 2.906,3.172 1.226,0.77 2.566,1.156 4.015,1.156 1.457,0 2.797,-0.386 4.016,-1.156 1.227,-0.773 2.195,-1.828 2.906,-3.172 0.719,-1.343 1.078,-2.828 1.078,-4.453 0,-1.742 -0.355,-3.293 -1.062,-4.656 -0.699,-1.356 -1.656,-2.414 -2.875,-3.172 -1.219,-0.758 -2.574,-1.141 -4.063,-1.141 z m 0,3.25 c 0.801,0 1.493,0.235 2.079,0.704 0.593,0.476 1.046,1.148 1.359,2.015 0.32,0.863 0.484,1.863 0.484,3 0,1.145 -0.164,2.133 -0.484,2.969 -0.313,0.832 -0.766,1.469 -1.359,1.906 -0.586,0.445 -1.278,0.672 -2.079,0.672 -0.761,0 -1.433,-0.227 -2.015,-0.672 -0.574,-0.437 -1.024,-1.078 -1.344,-1.922 -0.324,-0.836 -0.484,-1.82 -0.484,-2.953 0,-1.156 0.156,-2.168 0.468,-3.031 0.313,-0.856 0.754,-1.516 1.329,-1.984 0.57,-0.469 1.253,-0.704 2.046,-0.704 z"
       style="fill:#000000;fill-opacity:1;fill-rule:nonzero;stroke:none"
       id="path3910"
       inkscape:connector-curvature="0" /><path
       d="m 717.371,1130.723 c -2.117,0.887 -3.969,2.133 -5.562,3.735 -1.586,1.605 -2.809,3.425 -3.672,5.468 -0.856,2.051 -1.282,4.16 -1.282,6.328 0,2.145 0.415,4.207 1.25,6.188 0.833,1.988 2.024,3.766 3.579,5.328 1.55,1.563 3.375,2.785 5.468,3.672 l 0.938,-3.125 c -2.406,-1.242 -4.258,-2.906 -5.547,-5 -1.293,-2.094 -1.938,-4.484 -1.938,-7.172 0,-1.75 0.301,-3.43 0.907,-5.031 0.613,-1.606 1.5,-3.039 2.656,-4.297 1.156,-1.27 2.531,-2.281 4.125,-3.031 z"
       style="fill:#000000;fill-opacity:1;fill-rule:nonzero;stroke:none"
       id="path3912"
       inkscape:connector-curvature="0" /><path
       d="m 724.855,1133.782 c 1.594,0.75 2.969,1.761 4.125,3.031 1.165,1.258 2.051,2.691 2.657,4.297 0.613,1.601 0.922,3.281 0.922,5.031 0,2.688 -0.653,5.078 -1.954,7.172 -1.293,2.094 -3.14,3.758 -5.546,5 l 0.937,3.125 c 2.094,-0.887 3.914,-2.109 5.469,-3.672 1.562,-1.562 2.754,-3.34 3.578,-5.328 0.832,-1.98 1.25,-4.043 1.25,-6.188 0,-2.167 -0.434,-4.277 -1.297,-6.328 -0.855,-2.043 -2.078,-3.863 -3.672,-5.468 -1.586,-1.602 -3.429,-2.848 -5.531,-3.735 z"
       style="fill:#000000;fill-opacity:1;fill-rule:nonzero;stroke:none"
       id="path3914"
       inkscape:connector-curvature="0" /><text
       xml:space="preserve"
       style="font-style:normal;font-weight:normal;font-size:8px;line-height:1.25;font-family:sans-serif;fill:#000000;fill-opacity:1;stroke:none;stroke-width:0.75"
       x="23.282639"
       y="-1155.5476"
       id="text1845"
       transform="scale(1,-1)"><tspan
         sodipodi:role="line"
         id="tspan1843"
         style="font-style:normal;font-variant:normal;font-weight:bold;font-stretch:normal;font-size:8px;font-family:Inconsolata;-inkscape-font-specification:Inconsolata;stroke-width:0.75"
         x="23.282639"
         y="-1155.5476">import py5</tspan><tspan
         sodipodi:role="line"
         style="font-style:normal;font-variant:normal;font-weight:bold;font-stretch:normal;font-size:8px;font-family:Inconsolata;-inkscape-font-specification:Inconsolata;stroke-width:0.75"
         x="23.282639"
         y="-1145.2756"
         id="tspan1847">import random  <tspan
   style="font-weight:normal"
   id="tspan401"># vou usar sample, shuffle, seed</tspan></tspan><tspan
         sodipodi:role="line"
         style="font-style:normal;font-variant:normal;font-weight:bold;font-stretch:normal;font-size:8px;font-family:Inconsolata;-inkscape-font-specification:Inconsolata;stroke-width:0.75"
         x="23.282639"
         y="-1135.0037"
         id="tspan1849" /><tspan
         sodipodi:role="line"
         style="font-style:normal;font-variant:normal;font-weight:bold;font-stretch:normal;font-size:8px;font-family:Inconsolata;-inkscape-font-specification:Inconsolata;stroke-width:0.75"
         x="23.282639"
         y="-1124.7316"
         id="tspan1851">nodes = {}</tspan><tspan
         sodipodi:role="line"
         style="font-style:normal;font-variant:normal;font-weight:bold;font-stretch:normal;font-size:8px;font-family:Inconsolata;-inkscape-font-specification:Inconsolata;stroke-width:0.75"
         x="23.282639"
         y="-1114.4596"
         id="tspan1853">unvisited_nodes = []</tspan><tspan
         sodipodi:role="line"
         style="font-style:normal;font-variant:normal;font-weight:bold;font-stretch:normal;font-size:8px;font-family:Inconsolata;-inkscape-font-specification:Inconsolata;stroke-width:0.75"
         x="23.282639"
         y="-1104.1876"
         id="tspan1855" /><tspan
         sodipodi:role="line"
         style="font-style:normal;font-variant:normal;font-weight:bold;font-stretch:normal;font-size:8px;font-family:Inconsolata;-inkscape-font-specification:Inconsolata;stroke-width:0.75"
         x="23.282639"
         y="-1093.9156"
         id="tspan1857">EVN_NBS = ((0, 1), (0, -1), (-1, 0), (1, 0), (-1, -1), (1, -1))</tspan><tspan
         sodipodi:role="line"
         style="font-style:normal;font-variant:normal;font-weight:bold;font-stretch:normal;font-size:8px;font-family:Inconsolata;-inkscape-font-specification:Inconsolata;stroke-width:0.75"
         x="23.282639"
         y="-1083.6436"
         id="tspan1859">ODD_NBS = ((0, 1), (0, -1), (-1, 0), (1, 0), (-1,  1), (1,  1))</tspan><tspan
         sodipodi:role="line"
         style="font-style:normal;font-variant:normal;font-weight:bold;font-stretch:normal;font-size:8px;font-family:Inconsolata;-inkscape-font-specification:Inconsolata;stroke-width:0.75"
         x="23.282639"
         y="-1073.3716"
         id="tspan1861" /><tspan
         sodipodi:role="line"
         style="font-style:normal;font-variant:normal;font-weight:bold;font-stretch:normal;font-size:8px;font-family:Inconsolata;-inkscape-font-specification:Inconsolata;stroke-width:0.75"
         x="23.282639"
         y="-1063.0996"
         id="tspan1863">W = 25</tspan><tspan
         sodipodi:role="line"
         style="font-style:normal;font-variant:normal;font-weight:bold;font-stretch:normal;font-size:8px;font-family:Inconsolata;-inkscape-font-specification:Inconsolata;stroke-width:0.75"
         x="23.282639"
         y="-1052.8276"
         id="tspan1865">H = W * py5.sqrt(3) / 2  <tspan
   style="font-weight:normal"
   id="tspan399"># sin(radians(60))</tspan></tspan><tspan
         sodipodi:role="line"
         style="font-style:normal;font-variant:normal;font-weight:bold;font-stretch:normal;font-size:8px;font-family:Inconsolata;-inkscape-font-specification:Inconsolata;stroke-width:0.75"
         x="23.282639"
         y="-1042.5557"
         id="tspan1867">OX, OY = W / 2, H / 2    <tspan
   style="font-weight:normal"
   id="tspan397"># deslocamento (offset)</tspan></tspan><tspan
         sodipodi:role="line"
         style="font-style:normal;font-variant:normal;font-weight:bold;font-stretch:normal;font-size:8px;font-family:Inconsolata;-inkscape-font-specification:Inconsolata;stroke-width:0.75"
         x="23.282639"
         y="-1032.2836"
         id="tspan1869" /><tspan
         sodipodi:role="line"
         style="font-style:normal;font-variant:normal;font-weight:bold;font-stretch:normal;font-size:8px;font-family:Inconsolata;-inkscape-font-specification:Inconsolata;stroke-width:0.75"
         x="23.282639"
         y="-1022.0116"
         id="tspan1871">def setup():</tspan><tspan
         sodipodi:role="line"
         style="font-style:normal;font-variant:normal;font-weight:bold;font-stretch:normal;font-size:8px;font-family:Inconsolata;-inkscape-font-specification:Inconsolata;stroke-width:0.75"
         x="23.282639"
         y="-1011.7396"
         id="tspan1873">    py5.size(1122, 1122)</tspan><tspan
         sodipodi:role="line"
         style="font-style:normal;font-variant:normal;font-weight:bold;font-stretch:normal;font-size:8px;font-family:Inconsolata;-inkscape-font-specification:Inconsolata;stroke-width:0.75"
         x="23.282639"
         y="-1001.4676"
         id="tspan1875">    py5.no_fill()</tspan><tspan
         sodipodi:role="line"
         style="font-style:normal;font-variant:normal;font-weight:bold;font-stretch:normal;font-size:8px;font-family:Inconsolata;-inkscape-font-specification:Inconsolata;stroke-width:0.75"
         x="23.282639"
         y="-991.19562"
         id="tspan1877">                         <tspan
   style="font-weight:normal"
   id="tspan395"># semente para o random!</tspan></tspan><tspan
         sodipodi:role="line"
         style="font-style:normal;font-variant:normal;font-weight:bold;font-stretch:normal;font-size:8px;font-family:Inconsolata;-inkscape-font-specification:Inconsolata;stroke-width:0.75"
         x="23.282639"
         y="-980.92365"
         id="tspan1911" /><tspan
         sodipodi:role="line"
         style="font-style:normal;font-variant:normal;font-weight:bold;font-stretch:normal;font-size:8px;font-family:Inconsolata;-inkscape-font-specification:Inconsolata;stroke-width:0.75"
         x="23.282639"
         y="-970.65161"
         id="tspan1913">def generate(s):</tspan><tspan
         sodipodi:role="line"
         style="font-style:normal;font-variant:normal;font-weight:bold;font-stretch:normal;font-size:8px;font-family:Inconsolata;-inkscape-font-specification:Inconsolata;stroke-width:0.75"
         x="23.282639"
         y="-960.37964"
         id="tspan1915">    global rnd_seed</tspan><tspan
         sodipodi:role="line"
         style="font-style:normal;font-variant:normal;font-weight:bold;font-stretch:normal;font-size:8px;font-family:Inconsolata;-inkscape-font-specification:Inconsolata;stroke-width:0.75"
         x="23.282639"
         y="-950.1076"
         id="tspan1917">    rnd_seed = s</tspan><tspan
         sodipodi:role="line"
         style="font-style:normal;font-variant:normal;font-weight:bold;font-stretch:normal;font-size:8px;font-family:Inconsolata;-inkscape-font-specification:Inconsolata;stroke-width:0.75"
         x="23.282639"
         y="-939.83563"
         id="tspan1919">    random.seed(s)</tspan><tspan
         sodipodi:role="line"
         style="font-style:normal;font-variant:normal;font-weight:bold;font-stretch:normal;font-size:8px;font-family:Inconsolata;-inkscape-font-specification:Inconsolata;stroke-width:0.75"
         x="23.282639"
         y="-929.5636"
         id="tspan1921">    print(f'seed: {s}')</tspan><tspan
         sodipodi:role="line"
         style="font-style:normal;font-variant:normal;font-weight:bold;font-stretch:normal;font-size:8px;font-family:Inconsolata;-inkscape-font-specification:Inconsolata;stroke-width:0.75"
         x="23.282639"
         y="-919.29163"
         id="tspan1923">    nodes.clear()</tspan><tspan
         sodipodi:role="line"
         style="font-style:normal;font-variant:normal;font-weight:bold;font-stretch:normal;font-size:8px;font-family:Inconsolata;-inkscape-font-specification:Inconsolata;stroke-width:0.75"
         x="23.282639"
         y="-909.01959"
         id="tspan1925">    unvisited_nodes[:] = []</tspan><tspan
         sodipodi:role="line"
         style="font-style:normal;font-variant:normal;font-weight:bold;font-stretch:normal;font-size:8px;font-family:Inconsolata;-inkscape-font-specification:Inconsolata;stroke-width:0.75"
         x="23.282639"
         y="-898.74762"
         id="tspan1927">    add_starting_points()</tspan><tspan
         sodipodi:role="line"
         style="font-style:normal;font-variant:normal;font-weight:bold;font-stretch:normal;font-size:8px;font-family:Inconsolata;-inkscape-font-specification:Inconsolata;stroke-width:0.75"
         x="23.282639"
         y="-888.47565"
         id="tspan1929">    previous_len_nodes = -1</tspan><tspan
         sodipodi:role="line"
         style="font-style:normal;font-variant:normal;font-weight:bold;font-stretch:normal;font-size:8px;font-family:Inconsolata;-inkscape-font-specification:Inconsolata;stroke-width:0.75"
         x="23.282639"
         y="-878.20361"
         id="tspan1931">    while previous_len_nodes != len(nodes):</tspan><tspan
         sodipodi:role="line"
         style="font-style:normal;font-variant:normal;font-weight:bold;font-stretch:normal;font-size:8px;font-family:Inconsolata;-inkscape-font-specification:Inconsolata;stroke-width:0.75"
         x="23.282639"
         y="-867.93164"
         id="tspan1933">        previous_len_nodes = len(nodes)</tspan><tspan
         sodipodi:role="line"
         style="font-style:normal;font-variant:normal;font-weight:bold;font-stretch:normal;font-size:8px;font-family:Inconsolata;-inkscape-font-specification:Inconsolata;stroke-width:0.75"
         x="23.282639"
         y="-857.65961"
         id="tspan1935">        unvisited_nodes[:] = grow()</tspan><tspan
         sodipodi:role="line"
         style="font-style:normal;font-variant:normal;font-weight:bold;font-stretch:normal;font-size:8px;font-family:Inconsolata;-inkscape-font-specification:Inconsolata;stroke-width:0.75"
         x="23.282639"
         y="-847.65961"
         id="tspan2035" /></text><text
       xml:space="preserve"
       style="font-style:normal;font-weight:normal;font-size:6px;line-height:1.25;font-family:sans-serif;fill:#000000;fill-opacity:1;stroke:none;stroke-width:0.75"
       x="300.78265"
       y="-1160.0476"
       id="text2679"
       transform="scale(1,-1)"><tspan
         sodipodi:role="line"
         style="font-style:normal;font-variant:normal;font-weight:normal;font-stretch:normal;font-size:6px;font-family:Inconsolata;-inkscape-font-specification:Inconsolata;stroke-width:0.75"
         x="300.78265"
         y="-1160.0476"
         id="tspan2569" /><tspan
         sodipodi:role="line"
         style="font-style:normal;font-variant:normal;font-weight:bold;font-stretch:normal;font-size:8px;font-family:Inconsolata;-inkscape-font-specification:Inconsolata;stroke-width:0.75"
         x="300.78265"
         y="-1150.4558"
         id="tspan5820">def add_starting_points():</tspan><tspan
         sodipodi:role="line"
         style="font-style:normal;font-variant:normal;font-weight:bold;font-stretch:normal;font-size:8px;font-family:Inconsolata;-inkscape-font-specification:Inconsolata;stroke-width:0.75"
         x="300.78265"
         y="-1140.4558"
         id="tspan5822">    for k in range(4):</tspan><tspan
         sodipodi:role="line"
         style="font-style:normal;font-variant:normal;font-weight:bold;font-stretch:normal;font-size:8px;font-family:Inconsolata;-inkscape-font-specification:Inconsolata;stroke-width:0.75"
         x="300.78265"
         y="-1130.4558"
         id="tspan5824">        limit = py5.width // W // 2 - 1</tspan><tspan
         sodipodi:role="line"
         style="font-style:normal;font-variant:normal;font-weight:bold;font-stretch:normal;font-size:8px;font-family:Inconsolata;-inkscape-font-specification:Inconsolata;stroke-width:0.75"
         x="300.78265"
         y="-1120.4558"
         id="tspan5826">        i = random.randint(-limit, limit)</tspan><tspan
         sodipodi:role="line"
         style="font-style:normal;font-variant:normal;font-weight:bold;font-stretch:normal;font-size:8px;font-family:Inconsolata;-inkscape-font-specification:Inconsolata;stroke-width:0.75"
         x="300.78265"
         y="-1110.4558"
         id="tspan5828">        j = random.randint(-limit, limit)</tspan><tspan
         sodipodi:role="line"
         style="font-style:normal;font-variant:normal;font-weight:bold;font-stretch:normal;font-size:8px;font-family:Inconsolata;-inkscape-font-specification:Inconsolata;stroke-width:0.75"
         x="300.78265"
         y="-1100.4558"
         id="tspan5830">        nodes[(i, j, k % 2)] = (i, j, 0)</tspan><tspan
         sodipodi:role="line"
         style="font-style:normal;font-variant:normal;font-weight:bold;font-stretch:normal;font-size:8px;font-family:Inconsolata;-inkscape-font-specification:Inconsolata;stroke-width:0.75"
         x="300.78265"
         y="-1090.4558"
         id="tspan5832">        unvisited_nodes.append((i, j, k % 2))</tspan><tspan
         sodipodi:role="line"
         style="font-style:normal;font-variant:normal;font-weight:bold;font-stretch:normal;font-size:8px;font-family:Inconsolata;-inkscape-font-specification:Inconsolata;stroke-width:0.75"
         x="300.78265"
         y="-1080.4558"
         id="tspan5816" /><tspan
         sodipodi:role="line"
         style="font-style:normal;font-variant:normal;font-weight:bold;font-stretch:normal;font-size:8px;font-family:Inconsolata;-inkscape-font-specification:Inconsolata;stroke-width:0.75"
         x="300.78265"
         y="-1070.4558"
         id="tspan5818">def grow():</tspan><tspan
         sodipodi:role="line"
         style="font-style:normal;font-variant:normal;font-weight:bold;font-stretch:normal;font-size:8px;font-family:Inconsolata;-inkscape-font-specification:Inconsolata;stroke-width:0.75"
         x="300.78265"
         y="-1060.4558"
         id="tspan2571">    for i, j, k in unvisited_nodes:</tspan><tspan
         sodipodi:role="line"
         style="font-style:normal;font-variant:normal;font-weight:bold;font-stretch:normal;font-size:8px;font-family:Inconsolata;-inkscape-font-specification:Inconsolata;stroke-width:0.75"
         x="300.78265"
         y="-1050.4558"
         id="tspan2573">        nbs = EVN_NBS if i % 2 == 0 else ODD_NBS</tspan><tspan
         sodipodi:role="line"
         style="font-style:normal;font-variant:normal;font-weight:bold;font-stretch:normal;font-size:8px;font-family:Inconsolata;-inkscape-font-specification:Inconsolata;stroke-width:0.75"
         x="300.78265"
         y="-1040.4558"
         id="tspan2575">        _, _, gen = nodes[(i, j, k)]</tspan><tspan
         sodipodi:role="line"
         style="font-style:normal;font-variant:normal;font-weight:bold;font-stretch:normal;font-size:8px;font-family:Inconsolata;-inkscape-font-specification:Inconsolata;stroke-width:0.75"
         x="300.78265"
         y="-1030.4558"
         id="tspan2577">        random.seed(k + gen // 10)</tspan><tspan
         sodipodi:role="line"
         style="font-style:normal;font-variant:normal;font-weight:bold;font-stretch:normal;font-size:8px;font-family:Inconsolata;-inkscape-font-specification:Inconsolata;stroke-width:0.75"
         x="300.78265"
         y="-1020.4559"
         id="tspan2579">        xnbs = random.sample(nbs, 3)</tspan><tspan
         sodipodi:role="line"
         style="font-style:normal;font-variant:normal;font-weight:bold;font-stretch:normal;font-size:8px;font-family:Inconsolata;-inkscape-font-specification:Inconsolata;stroke-width:0.75"
         x="300.78265"
         y="-1010.4559"
         id="tspan2581">        random.shuffle(xnbs)</tspan><tspan
         sodipodi:role="line"
         style="font-style:normal;font-variant:normal;font-weight:bold;font-stretch:normal;font-size:8px;font-family:Inconsolata;-inkscape-font-specification:Inconsolata;stroke-width:0.75"
         x="300.78265"
         y="-1000.4559"
         id="tspan2583">        for ni, nj in xnbs:</tspan><tspan
         sodipodi:role="line"
         style="font-style:normal;font-variant:normal;font-weight:bold;font-stretch:normal;font-size:8px;font-family:Inconsolata;-inkscape-font-specification:Inconsolata;stroke-width:0.75"
         x="300.78265"
         y="-990.45587"
         id="tspan2585">            ini, jnj = i + ni, j + nj</tspan><tspan
         sodipodi:role="line"
         style="font-style:normal;font-variant:normal;font-weight:bold;font-stretch:normal;font-size:8px;font-family:Inconsolata;-inkscape-font-specification:Inconsolata;stroke-width:0.75"
         x="300.78265"
         y="-980.45587"
         id="tspan2587">            if (ini, jnj, k) not in nodes and visible(ini, jnj):</tspan><tspan
         sodipodi:role="line"
         style="font-style:normal;font-variant:normal;font-weight:bold;font-stretch:normal;font-size:8px;font-family:Inconsolata;-inkscape-font-specification:Inconsolata;stroke-width:0.75"
         x="300.78265"
         y="-970.45587"
         id="tspan2589">                nodes[(ini, jnj, k)] = (i, j, gen + 1)</tspan><tspan
         sodipodi:role="line"
         style="font-style:normal;font-variant:normal;font-weight:bold;font-stretch:normal;font-size:8px;font-family:Inconsolata;-inkscape-font-specification:Inconsolata;stroke-width:0.75"
         x="300.78265"
         y="-960.45587"
         id="tspan2591">                yield ini, jnj, k</tspan><tspan
         sodipodi:role="line"
         style="font-style:normal;font-variant:normal;font-weight:bold;font-stretch:normal;font-size:8px;font-family:Inconsolata;-inkscape-font-specification:Inconsolata;stroke-width:0.75"
         x="300.78265"
         y="-950.45587"
         id="tspan2593" /><tspan
         sodipodi:role="line"
         style="font-style:normal;font-variant:normal;font-weight:bold;font-stretch:normal;font-size:8px;font-family:Inconsolata;-inkscape-font-specification:Inconsolata;stroke-width:0.75"
         x="300.78265"
         y="-940.45587"
         id="tspan2595">def ij_to_xy(i, j):</tspan><tspan
         sodipodi:role="line"
         style="font-style:normal;font-variant:normal;font-weight:bold;font-stretch:normal;font-size:8px;font-family:Inconsolata;-inkscape-font-specification:Inconsolata;stroke-width:0.75"
         x="300.78265"
         y="-930.45587"
         id="tspan2597">    y = j * H + OY if i % 2 == 0 else j * H + H / 2 + OY</tspan><tspan
         sodipodi:role="line"
         style="font-style:normal;font-variant:normal;font-weight:bold;font-stretch:normal;font-size:8px;font-family:Inconsolata;-inkscape-font-specification:Inconsolata;stroke-width:0.75"
         x="300.78265"
         y="-920.45587"
         id="tspan2599">    x = i * W * 3 / 4 + OX</tspan><tspan
         sodipodi:role="line"
         style="font-style:normal;font-variant:normal;font-weight:bold;font-stretch:normal;font-size:8px;font-family:Inconsolata;-inkscape-font-specification:Inconsolata;stroke-width:0.75"
         x="300.78265"
         y="-910.45587"
         id="tspan2601">    return x, y</tspan><tspan
         sodipodi:role="line"
         style="font-style:normal;font-variant:normal;font-weight:bold;font-stretch:normal;font-size:8px;font-family:Inconsolata;-inkscape-font-specification:Inconsolata;stroke-width:0.75"
         x="300.78265"
         y="-900.45587"
         id="tspan2603" /><tspan
         sodipodi:role="line"
         style="font-style:normal;font-variant:normal;font-weight:bold;font-stretch:normal;font-size:8px;font-family:Inconsolata;-inkscape-font-specification:Inconsolata;stroke-width:0.75"
         x="300.78265"
         y="-890.45587"
         id="tspan2605">def visible(i, j):</tspan><tspan
         sodipodi:role="line"
         style="font-style:normal;font-variant:normal;font-weight:bold;font-stretch:normal;font-size:8px;font-family:Inconsolata;-inkscape-font-specification:Inconsolata;stroke-width:0.75"
         x="300.78265"
         y="-880.45587"
         id="tspan2607">    x, y = ij_to_xy(i, j)</tspan><tspan
         sodipodi:role="line"
         style="font-style:normal;font-variant:normal;font-weight:bold;font-stretch:normal;font-size:8px;font-family:Inconsolata;-inkscape-font-specification:Inconsolata;stroke-width:0.75"
         x="300.78265"
         y="-870.45587"
         id="tspan2609">    return (abs(x) &lt; py5.width / 2 - W * 2 and</tspan><tspan
         sodipodi:role="line"
         style="font-style:normal;font-variant:normal;font-weight:bold;font-stretch:normal;font-size:8px;font-family:Inconsolata;-inkscape-font-specification:Inconsolata;stroke-width:0.75"
         x="300.78265"
         y="-860.45587"
         id="tspan2611">            abs(y) &lt; py5.width / 2 - W * 2)  # square </tspan><tspan
         sodipodi:role="line"
         style="font-style:normal;font-variant:normal;font-weight:bold;font-stretch:normal;font-size:8px;font-family:Inconsolata;-inkscape-font-specification:Inconsolata;stroke-width:0.75"
         x="300.78265"
         y="-850.45587"
         id="tspan2613" /><tspan
         sodipodi:role="line"
         style="font-style:normal;font-variant:normal;font-weight:bold;font-stretch:normal;font-size:8px;font-family:Inconsolata;-inkscape-font-specification:Inconsolata;stroke-width:0.75"
         x="300.78265"
         y="-840.45587"
         id="tspan2629" /><tspan
         sodipodi:role="line"
         style="font-style:normal;font-variant:normal;font-weight:bold;font-stretch:normal;font-size:8px;font-family:Inconsolata;-inkscape-font-specification:Inconsolata;stroke-width:0.75"
         x="300.78265"
         y="-830.45587"
         id="tspan2673" /><tspan
         sodipodi:role="line"
         style="font-style:normal;font-variant:normal;font-weight:bold;font-stretch:normal;font-size:8px;font-family:Inconsolata;-inkscape-font-specification:Inconsolata;stroke-width:0.75"
         x="300.78265"
         y="-820.45587"
         id="tspan2675" /><tspan
         sodipodi:role="line"
         style="font-style:normal;font-variant:normal;font-weight:bold;font-stretch:normal;font-size:8px;font-family:Inconsolata;-inkscape-font-specification:Inconsolata;stroke-width:0.75"
         x="300.78265"
         y="-812.54761"
         id="tspan2677" /></text><text
       xml:space="preserve"
       style="font-style:normal;font-weight:normal;font-size:6px;line-height:1.25;font-family:sans-serif;fill:#000000;fill-opacity:1;stroke:none;stroke-width:0.75"
       x="579.78265"
       y="-1130.0476"
       id="text3535"
       transform="scale(1,-1)"><tspan
         sodipodi:role="line"
         style="font-style:normal;font-variant:normal;font-weight:normal;font-stretch:normal;font-size:6px;font-family:Inconsolata;-inkscape-font-specification:Inconsolata;stroke-width:0.75"
         x="579.78265"
         y="-1130.0476"
         id="tspan3481" /><tspan
         sodipodi:role="line"
         style="font-style:normal;font-variant:normal;font-weight:bold;font-stretch:normal;font-size:8px;font-family:Inconsolata;-inkscape-font-specification:Inconsolata;stroke-width:0.75"
         x="579.78265"
         y="-1120.4558"
         id="tspan3483" /><tspan
         sodipodi:role="line"
         style="font-style:normal;font-variant:normal;font-weight:bold;font-stretch:normal;font-size:8px;font-family:Inconsolata;-inkscape-font-specification:Inconsolata;stroke-width:0.75"
         x="579.78265"
         y="-1110.4558"
         id="tspan3485" /><tspan
         sodipodi:role="line"
         style="font-style:normal;font-variant:normal;font-weight:bold;font-stretch:normal;font-size:8px;font-family:Inconsolata;-inkscape-font-specification:Inconsolata;stroke-width:0.75"
         x="579.78265"
         y="-1100.4558"
         id="tspan3487">def hexagon(xo, yo, r):</tspan><tspan
         sodipodi:role="line"
         style="font-style:normal;font-variant:normal;font-weight:bold;font-stretch:normal;font-size:8px;font-family:Inconsolata;-inkscape-font-specification:Inconsolata;stroke-width:0.75"
         x="579.78265"
         y="-1090.4558"
         id="tspan5877">    ang = py5.TWO_PI / 6</tspan><tspan
         sodipodi:role="line"
         style="font-style:normal;font-variant:normal;font-weight:bold;font-stretch:normal;font-size:8px;font-family:Inconsolata;-inkscape-font-specification:Inconsolata;stroke-width:0.75"
         x="579.78265"
         y="-1080.4558"
         id="tspan5879">    with py5.begin_closed_shape(): <tspan
   style="font-weight:normal"
   id="tspan405"># começa a desenhar a forma</tspan></tspan><tspan
         sodipodi:role="line"
         style="font-style:normal;font-variant:normal;font-weight:bold;font-stretch:normal;font-size:8px;font-family:Inconsolata;-inkscape-font-specification:Inconsolata;stroke-width:0.75"
         x="579.78265"
         y="-1070.4558"
         id="tspan5881">         for i in range(6):</tspan><tspan
         sodipodi:role="line"
         style="font-style:normal;font-variant:normal;font-weight:bold;font-stretch:normal;font-size:8px;font-family:Inconsolata;-inkscape-font-specification:Inconsolata;stroke-width:0.75"
         x="579.78265"
         y="-1060.4558"
         id="tspan5883">            py5.vertex(xo + py5.cos(i * ang) * r,</tspan><tspan
         sodipodi:role="line"
         style="font-style:normal;font-variant:normal;font-weight:bold;font-stretch:normal;font-size:8px;font-family:Inconsolata;-inkscape-font-specification:Inconsolata;stroke-width:0.75"
         x="579.78265"
         y="-1050.4558"
         id="tspan5885">                       yo + py5.sin(i * ang) * r)</tspan><tspan
         sodipodi:role="line"
         style="font-style:normal;font-variant:normal;font-weight:bold;font-stretch:normal;font-size:8px;font-family:Inconsolata;-inkscape-font-specification:Inconsolata;stroke-width:0.75"
         x="579.78265"
         y="-1040.4558"
         id="tspan5887" /><tspan
         sodipodi:role="line"
         style="font-style:normal;font-variant:normal;font-weight:bold;font-stretch:normal;font-size:8px;font-family:Inconsolata;-inkscape-font-specification:Inconsolata;stroke-width:0.75"
         x="579.78265"
         y="-1030.4558"
         id="tspan5889">def draw():</tspan><tspan
         sodipodi:role="line"
         style="font-style:normal;font-variant:normal;font-weight:bold;font-stretch:normal;font-size:8px;font-family:Inconsolata;-inkscape-font-specification:Inconsolata;stroke-width:0.75"
         x="579.78265"
         y="-1020.4559"
         id="tspan3489">    py5.background(255)</tspan><tspan
         sodipodi:role="line"
         style="font-style:normal;font-variant:normal;font-weight:bold;font-stretch:normal;font-size:8px;font-family:Inconsolata;-inkscape-font-specification:Inconsolata;stroke-width:0.75"
         x="579.78265"
         y="-1010.4559"
         id="tspan3491">    py5.translate(py5.width / 2, py5.height / 2)</tspan><tspan
         sodipodi:role="line"
         style="font-style:normal;font-variant:normal;font-weight:bold;font-stretch:normal;font-size:8px;font-family:Inconsolata;-inkscape-font-specification:Inconsolata;stroke-width:0.75"
         x="579.78265"
         y="-1000.4559"
         id="tspan3493">    for n, v in nodes.items():</tspan><tspan
         sodipodi:role="line"
         style="font-style:normal;font-variant:normal;font-weight:bold;font-stretch:normal;font-size:8px;font-family:Inconsolata;-inkscape-font-specification:Inconsolata;stroke-width:0.75"
         x="579.78265"
         y="-990.45587"
         id="tspan3495">        ia, ja, ka = n</tspan><tspan
         sodipodi:role="line"
         style="font-style:normal;font-variant:normal;font-weight:bold;font-stretch:normal;font-size:8px;font-family:Inconsolata;-inkscape-font-specification:Inconsolata;stroke-width:0.75"
         x="579.78265"
         y="-980.45587"
         id="tspan3497">        ib, jb, gen = v</tspan><tspan
         sodipodi:role="line"
         style="font-style:normal;font-variant:normal;font-weight:bold;font-stretch:normal;font-size:8px;font-family:Inconsolata;-inkscape-font-specification:Inconsolata;stroke-width:0.75"
         x="579.78265"
         y="-970.45587"
         id="tspan3499">        w = py5.remap(gen, 0, 50, 0, W)</tspan><tspan
         sodipodi:role="line"
         style="font-style:normal;font-variant:normal;font-weight:bold;font-stretch:normal;font-size:8px;font-family:Inconsolata;-inkscape-font-specification:Inconsolata;stroke-width:0.75"
         x="579.78265"
         y="-960.45587"
         id="tspan3501">        xa, ya = ij_to_xy(ia, ja)</tspan><tspan
         sodipodi:role="line"
         style="font-style:normal;font-variant:normal;font-weight:bold;font-stretch:normal;font-size:8px;font-family:Inconsolata;-inkscape-font-specification:Inconsolata;stroke-width:0.75"
         x="579.78265"
         y="-950.45587"
         id="tspan3503">        xb, yb = ij_to_xy(ib, jb)</tspan><tspan
         sodipodi:role="line"
         style="font-style:normal;font-variant:normal;font-weight:bold;font-stretch:normal;font-size:8px;font-family:Inconsolata;-inkscape-font-specification:Inconsolata;stroke-width:0.75"
         x="579.78265"
         y="-940.45587"
         id="tspan3505">        py5.stroke_weight(min(abs(W / 30 + 3 - w / 5), 2))</tspan><tspan
         sodipodi:role="line"
         style="font-style:normal;font-variant:normal;font-weight:bold;font-stretch:normal;font-size:8px;font-family:Inconsolata;-inkscape-font-specification:Inconsolata;stroke-width:0.75"
         x="579.78265"
         y="-930.45587"
         id="tspan3507">        py5.line(xa, ya, xb, yb)</tspan><tspan
         sodipodi:role="line"
         style="font-style:normal;font-variant:normal;font-weight:bold;font-stretch:normal;font-size:8px;font-family:Inconsolata;-inkscape-font-specification:Inconsolata;stroke-width:0.75"
         x="579.78265"
         y="-920.45587"
         id="tspan3509">        hexagon(xa, ya, w)</tspan><tspan
         sodipodi:role="line"
         style="font-style:normal;font-variant:normal;font-weight:bold;font-stretch:normal;font-size:8px;font-family:Inconsolata;-inkscape-font-specification:Inconsolata;stroke-width:0.75"
         x="579.78265"
         y="-910.45587"
         id="tspan3511" /><tspan
         sodipodi:role="line"
         style="font-style:normal;font-variant:normal;font-weight:bold;font-stretch:normal;font-size:8px;font-family:Inconsolata;-inkscape-font-specification:Inconsolata;stroke-width:0.75"
         x="579.78265"
         y="-900.45587"
         id="tspan3513">def key_pressed():</tspan><tspan
         sodipodi:role="line"
         style="font-style:normal;font-variant:normal;font-weight:bold;font-stretch:normal;font-size:8px;font-family:Inconsolata;-inkscape-font-specification:Inconsolata;stroke-width:0.75"
         x="579.78265"
         y="-890.45587"
         id="tspan3515">    if py5.key == ' ':  <tspan
   style="font-weight:normal"
   id="tspan403"># apertando espaço gera outro</tspan></tspan><tspan
         sodipodi:role="line"
         style="font-style:normal;font-variant:normal;font-weight:bold;font-stretch:normal;font-size:8px;font-family:Inconsolata;-inkscape-font-specification:Inconsolata;stroke-width:0.75"
         x="579.78265"
         y="-880.45587"
         id="tspan3517">        generate(py5.frame_count)</tspan><tspan
         sodipodi:role="line"
         style="font-style:normal;font-variant:normal;font-weight:bold;font-stretch:normal;font-size:8px;font-family:Inconsolata;-inkscape-font-specification:Inconsolata;stroke-width:0.75"
         x="579.78265"
         y="-870.45587"
         id="tspan3527" /><tspan
         sodipodi:role="line"
         style="font-style:normal;font-variant:normal;font-weight:bold;font-stretch:normal;font-size:8px;font-family:Inconsolata;-inkscape-font-specification:Inconsolata;stroke-width:0.75"
         x="579.78265"
         y="-860.45587"
         id="tspan3529">py5.run_sketch()</tspan><tspan
         sodipodi:role="line"
         style="font-style:normal;font-variant:normal;font-weight:bold;font-stretch:normal;font-size:8px;font-family:Inconsolata;-inkscape-font-specification:Inconsolata;stroke-width:0.75"
         x="579.78265"
         y="-850.45587"
         id="tspan3531" /><tspan
         sodipodi:role="line"
         style="font-style:normal;font-variant:normal;font-weight:bold;font-stretch:normal;font-size:8px;font-family:Inconsolata;-inkscape-font-specification:Inconsolata;stroke-width:0.75"
         x="579.78265"
         y="-842.54761"
         id="tspan3533" /></text></g></svg>
